<svg id="Layer_1" data-name="Layer 1" xmlns="http://www.w3.org/2000/svg" viewBox="0 0 843.94 472.67"><defs><style>.cls-1{fill:#110f10;}.cls-2{fill:#ec1c24;}.cls-3{fill:#fff;}</style></defs><path class="cls-1" d="M144.63,618.56H94.4V385.46h50.23Z" transform="translate(-82.96 -284.29)"/><path class="cls-1" d="M415.18,555.27l.46.47q-12.43,30.48-41.05,48.83-28.77,18.51-69.51,18.5-53.65,0-89.26-34.36t-35.46-86.62q0-51.63,35.46-85.84,35.61-34.37,88.95-34.36,40.74,0,69.2,18.66t40.9,48.52l-46.5,18.81a73.68,73.68,0,0,0-25.19-28.3q-16.49-11-38.26-11-31.1,0-52.4,21-21.15,21-21.15,52.41,0,31.09,21.3,52.71t52.25,21.46q23,0,39.66-11.35t23.79-28.46Z" transform="translate(-82.96 -284.29)"/><path class="cls-1" d="M558.71,622.61h-.16q-55.51,0-89.72-34.06t-34.21-86.61q0-52.41,34.21-86.46t89.72-34.06q55.51,0,89.88,34.06t34.37,86.46q0,52.56-34.37,86.61T558.71,622.61Zm-.16-195v.31q-31.26,0-52.25,21.15-21,21.3-21,53t21,53.18q21,21.47,52.25,21.46,31.41,0,52.25-21.3t20.84-53.49q0-31.87-20.84-53.19Q590.12,427.62,558.55,427.61Z" transform="translate(-82.96 -284.29)"/><path class="cls-1" d="M873.14,385.31h50.23v233.1H875.62L770.81,473.48V618.41H720.59V385.31h47.74L873.14,530.55Z" transform="translate(-82.96 -284.29)"/><path class="cls-1" d="M156.07,320.89a36.32,36.32,0,0,1-.58,6.48h0c-2.61,4.07-7.71,12.52-9.6,18.78h0q-.7.72-1.44,1.41c-4.38-4.31-24.94-22.35-54.94-14.81,0,0,7,1.69,11.34,7.35,0,0,22.06-5.34,40.6,10A36.55,36.55,0,1,1,152.92,306c-7.34,6.65-11.76,20.08-12.47,25.21-21.38-26.46-51.95-18.11-51.95-18.11l4.88,3.82c24.68-2.69,44.78,14.58,49.08,18.54,2-15.86,10.34-23.75,12-25.22a34.86,34.86,0,0,1,1.13,4.9c-2.62,2.61-11.22,12.06-12.35,25.22,0,0-15.59-24.43-56.49-17.64L94,327.24s33.16-4,50.47,17.92C146,341.26,148.34,327.8,156.07,320.89Z" transform="translate(-82.96 -284.29)"/><rect class="cls-2" x="102.74" y="364.14" width="741.2" height="108.54" rx="0.49"/><path class="cls-3" d="M278.82,739.26l-6.85,0-14-31.65H226.31l-14.05,31.65-6.85,0,34.29-77.51h5Zm-23.66-38.08-13-29.37-13,29.37Z" transform="translate(-82.96 -284.29)"/><path class="cls-3" d="M310.26,739.52a26.32,26.32,0,0,1-13.8-3.74,28,28,0,0,1-9.91-10,28,28,0,0,1,0-27.81,27.72,27.72,0,0,1,9.91-10,27.44,27.44,0,0,1,28,.24q6.33,3.93,6.95,5.08V663.56h6.33v75.7h-6.33v-8.82q-.62,1.14-6.95,5.11A26.16,26.16,0,0,1,310.26,739.52Zm0-6.39a20,20,0,0,0,10.55-2.87,21.84,21.84,0,0,0,7.6-7.71,20.55,20.55,0,0,0,2.86-10.69,20.92,20.92,0,0,0-2.83-10.74,21.48,21.48,0,0,0-7.6-7.67,21.05,21.05,0,0,0-21.19,0,21.65,21.65,0,0,0-7.6,7.67,21.5,21.5,0,0,0,0,21.43,21.84,21.84,0,0,0,7.6,7.71A20.12,20.12,0,0,0,310.26,733.13Z" transform="translate(-82.96 -284.29)"/><path class="cls-3" d="M444.83,739.26H438.5v-27.4a23.85,23.85,0,0,0-5-15.3q-4.87-6-11.77-6a14.17,14.17,0,0,0-6.31,1.51,15.86,15.86,0,0,0-5.45,4.46,22.33,22.33,0,0,0-3.68,6.9,26.43,26.43,0,0,0-1.32,8.45v27.4h-6.33l-.05-27.4a26.16,26.16,0,0,0-1.33-8.45,22.33,22.33,0,0,0-3.68-6.9,15.77,15.77,0,0,0-5.45-4.46,13.79,13.79,0,0,0-12.55,0,16.28,16.28,0,0,0-5.53,4.51,23.81,23.81,0,0,0-4.87,13.54v29.16h-6.38V686.81h6.38v5.75a22.16,22.16,0,0,1,7.67-6.25,20.36,20.36,0,0,1,18,0,22.72,22.72,0,0,1,7.73,6.25,31.05,31.05,0,0,1,3.21,4.52,29.5,29.5,0,0,1,3.22-4.52,22.63,22.63,0,0,1,7.73-6.25,20.23,20.23,0,0,1,18,0,22.63,22.63,0,0,1,7.73,6.25q5.91,7.43,6.38,18.27Z" transform="translate(-82.96 -284.29)"/><path class="cls-3" d="M465.12,683.85a4.09,4.09,0,0,1-3-1.27,4.18,4.18,0,0,1-1.27-3,4.29,4.29,0,0,1,1.22-3,4,4,0,0,1,3-1.29,4.24,4.24,0,0,1,3,1.22,4.05,4.05,0,0,1,1.29,3.08,4.2,4.2,0,0,1-1.24,3A4.06,4.06,0,0,1,465.12,683.85Zm3.16,55.41H462V686.81h6.33Z" transform="translate(-82.96 -284.29)"/><path class="cls-3" d="M494,739.21a23.37,23.37,0,0,1-5.19-.63,28.89,28.89,0,0,1-3.11-.93c-.83-.28-1.55-.53-2.15-.75s-1.84-.79-3.71-1.69l2.44-5.76,2.95,1.19c.87.39,1.72.73,2.55,1s1.69.52,2.49.73a16,16,0,0,0,3.68.46,11.37,11.37,0,0,0,5.37-1.21,11.17,11.17,0,0,0,5.84-7.45,10.89,10.89,0,0,0,.2-2,9.33,9.33,0,0,0-.36-2.6,9.6,9.6,0,0,0-2.75-4.35,13.86,13.86,0,0,0-5.86-3.06l-3.63-.83a21,21,0,0,1-7.86-4.16,13.7,13.7,0,0,1-4.08-5.91,12.38,12.38,0,0,1-.77-4.2,11.84,11.84,0,0,1,.31-2.7,13.57,13.57,0,0,1,3.11-6.07,15.77,15.77,0,0,1,5.5-3.89,18.54,18.54,0,0,1,7.52-1.45,25,25,0,0,1,6,.78c.83.2,1.74.46,2.75.77.65.21,1.21.41,1.66.6l1.45.6,2.65,1.14-2.44,5.91-2.91-1.24a18.07,18.07,0,0,0-2.38-.94c-.7-.24-1.32-.43-1.87-.57a1.57,1.57,0,0,1-.47-.1,19.4,19.4,0,0,0-4.36-.52,12.69,12.69,0,0,0-4.95.88,9.76,9.76,0,0,0-3.4,2.28,7.64,7.64,0,0,0-1.66,3.17,7.79,7.79,0,0,0-.1,1.3,6.42,6.42,0,0,0,.36,2.12,8.41,8.41,0,0,0,2.78,3.63,15.8,15.8,0,0,0,5.94,2.75,10.94,10.94,0,0,0,1.24.26c.87.18,1.75.39,2.65.63a19.31,19.31,0,0,1,7.86,4.72,15.29,15.29,0,0,1,3.86,6.74,16.42,16.42,0,0,1,.57,4.26,15.88,15.88,0,0,1-.36,3.37,17.29,17.29,0,0,1-3.22,7,17,17,0,0,1-5.94,4.9A17.68,17.68,0,0,1,494,739.21Z" transform="translate(-82.96 -284.29)"/><path class="cls-3" d="M533,739.21a23.24,23.24,0,0,1-5.19-.63,28.23,28.23,0,0,1-3.11-.93l-2.16-.75c-.6-.23-1.84-.79-3.71-1.69l2.44-5.76,3,1.19c.86.39,1.71.73,2.54,1s1.7.52,2.49.73a16.09,16.09,0,0,0,3.68.46,11.34,11.34,0,0,0,5.37-1.21,11.66,11.66,0,0,0,3.77-3.09,11.54,11.54,0,0,0,2.07-4.36,10.12,10.12,0,0,0,.21-2,9.33,9.33,0,0,0-.36-2.6,9.6,9.6,0,0,0-2.75-4.35,13.9,13.9,0,0,0-5.87-3.06l-3.63-.83a21.06,21.06,0,0,1-7.86-4.16,13.67,13.67,0,0,1-4.07-5.91,12.16,12.16,0,0,1-.78-4.2,12.43,12.43,0,0,1,.31-2.7,13.59,13.59,0,0,1,3.12-6.07,15.73,15.73,0,0,1,5.49-3.89,18.63,18.63,0,0,1,7.53-1.45,25,25,0,0,1,6,.78c.83.2,1.75.46,2.75.77.66.21,1.21.41,1.66.6l1.46.6,2.64,1.14-2.44,5.91-2.9-1.24a18.19,18.19,0,0,0-2.39-.94c-.69-.24-1.31-.43-1.87-.57a1.53,1.53,0,0,1-.46-.1,19.53,19.53,0,0,0-4.36-.52,12.74,12.74,0,0,0-5,.88,9.62,9.62,0,0,0-3.39,2.28,7.53,7.53,0,0,0-1.66,3.17,7.77,7.77,0,0,0-.11,1.3,6.19,6.19,0,0,0,.37,2.12,8.31,8.31,0,0,0,2.77,3.63,15.8,15.8,0,0,0,5.94,2.75,11.11,11.11,0,0,0,1.25.26q1.29.27,2.64.63a19.31,19.31,0,0,1,7.86,4.72,15.31,15.31,0,0,1,3.87,6.74,16.42,16.42,0,0,1,.57,4.26,15.26,15.26,0,0,1-.37,3.37,17.27,17.27,0,0,1-9.15,11.85A17.71,17.71,0,0,1,533,739.21Z" transform="translate(-82.96 -284.29)"/><path class="cls-3" d="M565.35,683.85a4.06,4.06,0,0,1-3-1.27,4.15,4.15,0,0,1-1.28-3,4.29,4.29,0,0,1,1.22-3,4,4,0,0,1,3-1.29,4.24,4.24,0,0,1,3,1.22,4.05,4.05,0,0,1,1.29,3.08,4.2,4.2,0,0,1-1.24,3A4.06,4.06,0,0,1,565.35,683.85Zm3.16,55.41h-6.33V686.81h6.33Z" transform="translate(-82.96 -284.29)"/><path class="cls-3" d="M607.42,739.52a25.88,25.88,0,0,1-13.69-3.79,28.9,28.9,0,0,1-10-10.09,27.39,27.39,0,0,1,0-27.58A28.64,28.64,0,0,1,593.67,688a26.84,26.84,0,0,1,27.45,0,28.67,28.67,0,0,1,10,10.07,26.61,26.61,0,0,1,3.73,13.82,27,27,0,0,1-2.15,10.72,28.1,28.1,0,0,1-5.86,8.82,27.73,27.73,0,0,1-8.74,5.94A26.55,26.55,0,0,1,607.42,739.52Zm0-6.39a20.52,20.52,0,0,0,10.64-2.82,21,21,0,0,0,10.37-18.45A21.35,21.35,0,0,0,625.66,701a21.08,21.08,0,0,0-36.5,0,21.52,21.52,0,0,0,7.52,29.26A20.53,20.53,0,0,0,607.42,733.13Z" transform="translate(-82.96 -284.29)"/><path class="cls-3" d="M693.44,739.26h-6.38v-27.4a26.16,26.16,0,0,0-1.33-8.45,22.33,22.33,0,0,0-3.68-6.9,15.77,15.77,0,0,0-5.45-4.46,14,14,0,0,0-6.25-1.51,14.16,14.16,0,0,0-6.3,1.51,16.28,16.28,0,0,0-5.53,4.51,24.06,24.06,0,0,0-4.92,13.54v29.16h-6.33V686.81h6.33v5.75a22.54,22.54,0,0,1,7.73-6.25,20.23,20.23,0,0,1,17.95,0,22.72,22.72,0,0,1,7.73,6.25q5.85,7.43,6.43,18.27Z" transform="translate(-82.96 -284.29)"/><path class="cls-3" d="M808.4,739.26l-6.84,0-14-31.65H755.9l-14.06,31.65-6.85,0,34.3-77.51h5Zm-23.65-38.08-13-29.37-13,29.37Z" transform="translate(-82.96 -284.29)"/><path class="cls-3" d="M819.3,683.85a4.06,4.06,0,0,1-3-1.27,4.15,4.15,0,0,1-1.28-3,4.29,4.29,0,0,1,1.22-3,4,4,0,0,1,3-1.29,4.24,4.24,0,0,1,3,1.22,4.05,4.05,0,0,1,1.29,3.08,4.2,4.2,0,0,1-1.24,3A4.06,4.06,0,0,1,819.3,683.85Zm3.16,55.41h-6.33V686.81h6.33Z" transform="translate(-82.96 -284.29)"/><path class="cls-3" d="M861.37,739.52a26.32,26.32,0,0,1-13.8-3.74,28,28,0,0,1-9.91-10,28.11,28.11,0,0,1,0-27.81,27.8,27.8,0,0,1,9.91-10,27.45,27.45,0,0,1,28,.24q6.33,3.93,7,5.08V663.56h6.33v75.7h-6.33v-8.82q-.63,1.14-7,5.11A26.17,26.17,0,0,1,861.37,739.52Zm0-6.39a20,20,0,0,0,10.56-2.87,21.84,21.84,0,0,0,7.6-7.71,20.64,20.64,0,0,0,2.85-10.69,20.91,20.91,0,0,0-2.82-10.74,21.48,21.48,0,0,0-7.6-7.67,21.07,21.07,0,0,0-21.2,0,21.81,21.81,0,0,0-7.6,7.67,21.57,21.57,0,0,0,0,21.43,22,22,0,0,0,7.6,7.71A20.15,20.15,0,0,0,861.37,733.13Z" transform="translate(-82.96 -284.29)"/></svg>